# xmcd
#
# Track frame offsets:
#	150
#	18882
#	31544
#	49561
#	67106
#	83501
#	94593
#	108676
#	122063
#	131212
#	146717
#
# Disc length: 2209 seconds
#
# Revision: 0
# Processed by: cddbd v1.4PL0 Copyright (c) Steve Scherf et al.
# Submitted via: dBpowerAMP V4.0
#
DISCID=8d089f0b
DTITLE=Daniel O' Donnell - My Real Irish Christmas
DYEAR=2003
DGENRE=Country
TTITLE0=A message from Daniel
TTITLE1=I Saw Mommy Kissing Santa Claus
TTITLE2=White Christmas
TTITLE3=Christmas Long Ago
TTITLE4=When A Child Is Born
TTITLE5=Santa Claus Is Coming To Town
TTITLE6=Christmas In Innisfree
TTITLE7=Silver Bells
TTITLE8=Rockin' Around The Christmas Tree
TTITLE9=Christmas Story
TTITLE10=Silent Night
EXTD=Sunday World newspaper 7 Dec.2003
EXTT0=
EXTT1=
EXTT2=
EXTT3=
EXTT4=
EXTT5=
EXTT6=
EXTT7=
EXTT8=
EXTT9=
EXTT10=
PLAYORDER=
